<svg xmlns="http://www.w3.org/2000/svg" xmlns:xlink="http://www.w3.org/1999/xlink" width="129" height="145" viewBox="0 0 129 145">
    <defs>
        <path id="a" d="M.254.205H34.38v34.13H.254z"/>
        <path id="c" d="M.04.268h13.414v17.238H.04z"/>
    </defs>
    <g fill="none" fill-rule="evenodd">
        <path fill="#5B6670" d="M64.367 4.058c-22.819 0-41.383 18.567-41.383 41.389 0 22.82 18.564 41.386 41.383 41.386 22.822 0 41.39-18.565 41.39-41.386 0-22.822-18.568-41.39-41.39-41.39m0 83.522c-23.23 0-42.129-18.9-42.129-42.132 0-23.234 18.899-42.135 42.13-42.135 23.232 0 42.134 18.901 42.134 42.135 0 23.231-18.902 42.132-42.135 42.132"/>
        <path fill="#5B6670" d="M19.277 34.48C23.353 17.664 36.58 4.428 53.407.357h-34.13V34.48z"/>
        <g transform="translate(75.07 .15)">
            <mask id="b" fill="#fff">
                <use xlink:href="#a"/>
            </mask>
            <path fill="#5B6670" d="M.254.205c16.819 4.074 30.054 17.307 34.127 34.13V.206H.254z" mask="url(#b)"/>
        </g>
        <path fill="#5B6670" d="M19.277 56.4v34.129h34.13c-16.827-4.082-30.054-17.31-34.13-34.13M75.324 90.528h34.127V56.4c-4.072 16.82-17.308 30.048-34.127 34.13M98.668 32.691c-1.67-5.405-4.711-13.165-4.711-13.165-1.249 7.35.132 25.355.132 25.355-.132-5.54.555-20.366.555-20.366 11.504 25.634-4.983 37.132-4.983 37.132 12.887-3.045 10.67-23.551 9.007-28.956M77.192 39.341c-.141-.693-.141-1.939.411-3.326.551-1.384 3.746-5.267 4.438-9.836.966-6.234-4.16-12.19-4.16-12.19-.278 4.848-.278 11.913-.278 11.913l.834-7.205c1.111 1.246 1.937 1.662 2.355 5.403.416 3.74-2.638 6.648-4.296 11.086-1.663 4.43-.275 7.898-.275 7.898l5.68-5.263c-1.527 9.414-5.405 10.664-5.405 10.664-2.22.275-3.602-3.05-3.602-3.05-.831-8.31-4.99-20.227-4.99-20.227l-.826 2.216c1.523 3.187 4.43 15.242 4.848 19.674.413 4.438-.696 13.168-3.464 13.302-2.772.143-3.743-1.798-3.743-1.798 5.127-10.81-2.77-24.526-2.77-24.526-4.435 17.316 1.524 24.66 1.524 24.66-5.574 6.8-11.447 5.014-11.447 5.014 6.763 3.953 11.997-3.896 11.997-3.896 1.663 2.914 4.717 3.316 4.717 3.316 4.848 0 4.154-15.516 4.154-15.516 1.661 4.155 3.602 4.16 3.602 4.16 6.234.42 6.51-18.431 6.51-18.431-2.909 4.293-5.814 5.958-5.814 5.958m-14.972-1.52s5.128 10.389 1.803 18.838c0 0-4.292-2.766-1.803-18.838M54.88 36.571c-2.216 1.8-1.52 3.327-6.785 13.434-5.263 10.122-8.316 10.538-11.093 11.228-3.318.83-9.831-4.436-8.58-13.854 1.237-9.376 8.864-9.704 8.864-9.704-8.452-.828-10.122 7.387-10.669 10.252-1.108 5.82 3.474 14.614 8.866 15.803 6.93 1.523 12.197-9.701 14.965-16.214 2.771-6.51 4.29-9.42 4.29-9.42l.143-1.525zM37.705 72.455s-.832-2.493.69-3.739l-.974-1.387s-2.77 3.189.284 5.126M46.15 69.822l-.546 1.802c2.075 1.939 3.044 9.422 3.044 9.422 1.665-7.76-2.498-11.224-2.498-11.224M78.155 69.822l-.552 1.802c2.083 1.939 3.053 9.422 3.053 9.422 1.662-7.76-2.501-11.224-2.501-11.224M54.19 78.694l.138 1.934s3.323-4.016 3.605-7.896c0 0 .69 5.405 3.881 8.314l.27-2.77s-3.736-4.02-3.872-8.73c0 0-1.668 7.21-4.022 9.148M65.271 78.694l.14 1.934s3.33-4.016 3.604-7.896c0 0 .695 5.405 3.879 8.314l.277-2.77s-3.738-4.02-3.878-8.73c0 0-1.663 7.21-4.022 9.148M32.376 33.305c1.44 0 3.046-1.358 3.046-2.516 0-.777-.974-1.321-1.691-1.734-.592 1.255-2.536 2.042-2.536 3.499 0 .445.719.751 1.18.751m.594-2.822c.588.24 1.186.647 1.437 1.191-.375.171-.8.302-1.224.302-.377 0-.932-.168-.932-.54s.634-.577.72-.953M64.506 26.091c.75-.417.522-.997.695-1.141.21-.174.585.026 1.103-.265 1.288-.725.797-1.751.123-2.712l-.288-.413-.23-.32c-.517.295-.42.65-.146 1.043.244.339.953.967.35 1.305-.961.537-2.01-.52-1.696-1.129-.466.897-.386 1.38.175 2.117.1.132-.21.25-.344.328-.464.261-.891.093-1.168-.3-.242-.343-.345-.758-.601-1.128-.06.68-.048 1.455.365 2.044.324.465 1.033.922 1.662.571"/>
        <path fill="#5B6670" d="M74.923 22.976l-.27-.589s-.408 2.819-3.092 6.792c0 0 .28.511.259.75 0 0 2.72-3.896 3.103-6.953M15.962 109.763l.011 19.967h8.204l1.274-2.303-.477-.368s-1.28 1.714-3.11 1.679l-3.666-.033.003-21.66h-4.36l.033.701s2.054.219 2.088 2.017M73.86 109.763l.01 19.967h8.201l1.28-2.303-.476-.368s-1.283 1.714-3.116 1.679l-3.663-.033.004-21.66h-4.358l.031.701s2.05.219 2.088 2.017M87.671 109.763l.017 19.967h8.2l1.278-2.303-.474-.368s-1.29 1.714-3.116 1.679l-3.663-.033v-21.66h-4.358l.037.701s2.049.219 2.08 2.017M37.838 109.763l.01 19.967h2.221l.005-15.394c7.902-2.404 10.407 1.304 10.518 5.868.106 4.652-3.773 10.772-3.773 10.772 3.665-2.64 6.26-5.422 6.703-10.259.477-5.238-3.59-8.542-7.44-8.65-2.878-.084-5.083 1.312-6.008 2.02l.003-7.043h-4.361l.031.702s2.058.219 2.091 2.017"/>
        <g transform="translate(115.274 112.223)">
            <mask id="d" fill="#fff">
                <use xlink:href="#c"/>
            </mask>
            <path fill="#5B6670" d="M2.156 3.048l.017 14.458h2.244v-.005c9.341-.164 9.035-5.85 9.035-5.85.121-4.531-5.265-5.93-5.265-5.93 1.339-.338 2.74-1.095 2.463-3.256C10.303-.318 3.412.335 3.412.335H.04l.034.695s2.052.219 2.082 2.018zm2.245-1.505c1.704-.064 3.64.089 3.692 1.436.057 1.366-2.608 2.286-3.692 2.605v-4.04zm0 4.885c6.532-.003 6.372 5.102 6.372 5.102-.091 3.52-4.237 4.527-6.373 4.816L4.4 6.428z" mask="url(#d)"/>
        </g>
        <path fill="#5B6670" d="M.719 130.501c.772.365 6.96-9.896 6.96-9.896 3.37 6.817 3.37 9.086 3.37 9.086h2.825l.036-.875c-.586-.077-.918-.59-.918-.59l-6.448-15.903-3.117.037c1.544 1.503 2.27 4.366 2.27 4.366-1.425.8-4.03 3.512-5.05 6.37-1.026 2.857-.702 7.038.072 7.405m5.536-12.218s.657.955.434 1.574c-.217.623-3.115 4.986-4.175 6.082-1.06 1.1.99-6.891 3.741-7.656M56.951 130.501c.768.365 6.957-9.896 6.957-9.896 3.38 6.817 3.38 9.086 3.38 9.086h2.816l.038-.875c-.587-.077-.918-.59-.918-.59l-6.445-15.903-3.118.037c1.538 1.503 2.272 4.366 2.272 4.366-1.433.8-4.031 3.512-5.056 6.37-1.025 2.857-.701 7.038.074 7.405m5.533-12.218s.658.955.444 1.574c-.227.623-3.12 4.986-4.183 6.082-1.057 1.1.987-6.891 3.74-7.656M101.493 130.501c.776.365 6.968-9.896 6.968-9.896 3.371 6.817 3.371 9.086 3.371 9.086h2.818l.039-.875c-.59-.077-.914-.59-.914-.59l-6.454-15.903-3.119.037c1.55 1.503 2.279 4.366 2.279 4.366-1.432.8-4.03 3.512-5.06 6.37-1.022 2.857-.693 7.038.072 7.405m5.542-12.218s.659.955.434 1.574c-.22.623-3.113 4.986-4.175 6.082-1.058 1.1.99-6.891 3.741-7.656M84.302 143.884c0-.083-.065-.145-.189-.145-.148 0-.334.083-.558.083-.465 0-.996-.348-1.826-.926.77-.805.758-1.48.852-1.958.088-.478.52-.287.52-.548 0-.137-.055-.156-.216-.156-.297 0-.611.04-.95.04-.373 0-.774-.048-1.223-.048-.238 0-.365.059-.365.174 0 .208.302.167.824.251.422.073.61.35.61.9 0 .456-.115.78-.46 1.098-3.037-1.915-4.498-3.563-4.498-4.544 0-.37.409-.685.915-.685.724 0 1.483.441 1.888 1.155.267.463.143.679.407.679.14 0 .205-.05.205-.168 0-.145-.167-.565-.167-1.357 0-.099.022-.203.022-.326a.149.149 0 0 0-.137-.141c-.113 0-.244.127-.42.127-.378 0-.95-.367-1.885-.367-1.168 0-2.033.707-2.033 1.667 0 .337.095.65.282.999-1.217.378-1.978 1.354-1.978 2.362 0 1.414 1.469 2.546 3.805 2.546 1.099 0 2.22-.294 3.05-.808.785.468 1.33.79 1.94.79.861 0 1.585-.443 1.585-.694m-5.548.066c-.849 0-1.725-.327-2.534-.968-.752-.595-1.152-1.312-1.152-1.89 0-.67.593-1.056.926-1.056.226 0 .467.5 1.214 1.232.82.813 1.874 1.521 3.125 2.26-.475.294-.974.422-1.579.422M87.473 143.631c.078.428.055.382.423.452.402.078.868.438 1.534.438 1.254 0 2.171-1.09 2.171-2.797 0-.787-.208-1.44-.598-1.912-.355-.43-.887-.64-1.555-.96-.938-.447-1.391-.833-1.391-1.598 0-.665.442-1.208 1.098-1.208.632 0 1.25.432 1.603 1.132.383.806.219 1.163.503 1.163.12 0 .152-.073.152-.256 0-.435-.138-1.025-.138-1.592 0-.163.015-.299.015-.437 0-.186-.034-.27-.175-.27-.097 0-.18.16-.421.16-.349 0-.72-.416-1.486-.416-1.192 0-1.952 1.11-1.952 2.357 0 1.602.747 2 1.958 2.643 1.058.57 1.632.83 1.632 1.79 0 1.013-.603 1.63-1.36 1.63-.625 0-1.261-.543-1.678-1.46-.351-.773-.298-1.144-.494-1.144-.171 0-.2.096-.2.281 0 .015.013.09.041.226l.318 1.778zM98.012 136.64c0-.324.082-.471.265-.524.163-.034.25-.13.25-.27 0-.12-.067-.21-.166-.21-.097 0-.469.127-1.082.127-.518 0-.897-.101-1.105-.101-.15 0-.193.04-.193.208 0 .226.14.237.368.35.156.07.262.343.403.81l.527 1.779a.65.65 0 0 1 .034.21c0 .101-.013.21-.046.277l-1.073 2.853c-.02.06-.057.097-.088.097-.04 0-.07-.052-.088-.124l-1.317-4.508a3.087 3.087 0 0 1-.153-.843c0-.725.541-.592.541-.925 0-.105-.085-.21-.161-.21-.147 0-.567.105-1.223.105-.577 0-.996-.105-1.225-.105-.148 0-.208.066-.208.234 0 .185.113.246.301.324.348.138.581.436.705.837l2.16 7.351c.041.138.12.214.192.214.099 0 .119-.064.161-.179l1.66-4.506c.024-.06.07-.086.099-.086.018 0 .026.025.056.086l1.312 4.471c.045.138.119.214.184.214.09 0 .133-.054.162-.179l2.009-6.864c.22-.732.385-1.174.592-1.333.107-.089.324-.138.324-.374 0-.157-.046-.222-.174-.222-.138 0-.417.117-.823.117-.417 0-.756-.105-.998-.105-.176 0-.235.053-.235.22 0 .24.154.24.392.323.306.12.46.417.46.903 0 .273-.06.593-.163.975l-1.048 3.66c-.027.109-.078.159-.127.159-.03 0-.074-.05-.105-.136l-1.195-4.126a3.686 3.686 0 0 1-.161-.975M104.019 143.702c-.278.19-.512.2-.512.483 0 .137.086.221.27.221.209 0 .802-.108 1.747-.108.84 0 1.534.108 2.07.108.686 0 1.146-.208 1.464-.704.272-.445.426-1.086.426-1.345 0-.148-.066-.246-.154-.246-.22 0-.22.428-.694.875-.453.433-1.23.716-1.97.716-.84 0-.892-.258-.892-1.132v-1.929c0-.508.053-.695.474-.695h.428c.64 0 .94.123 1.118.641.135.412.015.708.292.708.128 0 .194-.076.194-.235 0-.148-.084-.681-.084-1.606 0-.567.038-.866.038-.936 0-.179-.038-.262-.176-.262-.264 0-.264.384-.474.704-.226.32-.504.421-.974.421h-.35c-.351 0-.486-.148-.486-.517v-1.932c0-.54.248-.712.902-.712 1.095 0 1.612.173 1.848.704.156.37-.012.713.288.713.157 0 .178-.06.178-.247 0-.082-.01-.445-.01-1.048v-.26c0-.407-.068-.444-.447-.444-.484 0-1.527.103-3.132.103-1.183 0-1.818-.103-1.916-.103-.187 0-.287.103-.287.254 0 .408.567.13.96.537.294.296.306.669.306 1.268v4.842c0 .57-.135.946-.445 1.163M115.837 143.702c.272-.445.428-1.086.428-1.345 0-.148-.065-.246-.156-.246-.22 0-.22.428-.695.875-.452.433-1.23.716-1.976.716-.828 0-.882-.258-.882-1.132v-1.929c0-.508.054-.695.465-.695h.431c.642 0 .944.123 1.117.641.135.412.027.708.298.708.127 0 .194-.076.194-.235 0-.148-.092-.681-.092-1.606 0-.567.046-.866.046-.936 0-.179-.046-.262-.175-.262-.271 0-.271.384-.476.704-.223.32-.495.421-.982.421h-.351c-.343 0-.475-.148-.475-.517v-1.932c0-.54.242-.712.896-.712 1.097 0 1.627.173 1.85.704.152.37-.013.713.29.713.152 0 .176-.06.176-.247 0-.082-.016-.445-.016-1.048v-.26c0-.407-.063-.444-.438-.444-.488 0-1.531.103-3.133.103-1.188 0-1.822-.103-1.916-.103-.19 0-.285.103-.285.254 0 .408.562.13.96.537.288.296.3.669.3 1.268v4.842c0 .57-.13.946-.443 1.163-.28.19-.51.2-.51.483 0 .137.094.221.269.221.207 0 .81-.108 1.744-.108.844 0 1.544.108 2.078.108.683 0 1.143-.208 1.459-.704M123.249 137.65c.14 0 .14-.036.14-.271v-.11l-.076-1.26c-.022-.347-.1-.372-.375-.372-.318 0-.898.077-1.755.077h-2.345c-.82 0-1.372-.077-1.638-.077-.254 0-.265.114-.29.505-.058.977-.176 1.534-.176 1.64 0 .19.057.275.164.275.302 0 .2-.358.448-1.026.205-.578.67-.652 1.48-.652.587 0 .654.05.654.566v5.596c0 .632-.162 1.024-.55 1.227-.3.157-.578.097-.578.392 0 .15.098.258.279.258.312 0 .869-.12 1.595-.12.68 0 1.164.108 1.41.108.165 0 .255-.086.255-.26 0-.339-.356-.245-.647-.405-.404-.223-.531-.594-.531-1.236v-5.523c0-.575.117-.59.756-.59h.076c.785 0 1.148.087 1.354.564.176.434.083.694.35.694M126.618 143.95c-.63 0-1.261-.541-1.68-1.46-.349-.776-.296-1.144-.497-1.144-.169 0-.2.096-.2.281 0 .015.014.087.037.226l.322 1.778c.076.428.062.384.423.452.393.076.87.437 1.535.437 1.26 0 2.168-1.088 2.168-2.795 0-.788-.199-1.44-.588-1.913-.362-.431-.894-.64-1.56-.96-.933-.447-1.39-.832-1.39-1.597 0-.665.445-1.21 1.1-1.21.625 0 1.254.434 1.599 1.134.382.805.217 1.162.503 1.162.116 0 .149-.075.149-.257 0-.435-.134-1.023-.134-1.59 0-.164.019-.3.019-.438 0-.185-.039-.268-.183-.268-.094 0-.178.158-.413.158-.362 0-.726-.417-1.49-.417-1.195 0-1.955 1.11-1.955 2.358 0 1.603.757 1.998 1.962 2.643 1.058.57 1.63.829 1.63 1.79 0 1.013-.605 1.63-1.357 1.63M2.965 144.479c.169 0 .245-.057.245-.272 0-.314-.299-.24-.539-.392-.304-.197-.437-.595-.437-1.236v-1.816c0-.346.106-.428.414-.428.317 0 .54 0 .728.205.167.187.388.766.748 1.695.59 1.517 1.042 2.206 1.68 2.206.534 0 1.057-.341 1.057-.64 0-.124-.044-.173-.147-.173-.053 0-.145.028-.254.028-.304 0-.467-.262-.714-.816l-1.001-2.309c-.104-.23-.183-.422-.344-.523.87-.355 1.285-.998 1.285-1.987 0-1.468-.816-2.322-2.316-2.322-.666 0-1.287.116-1.828.116-.726 0-1.165-.093-1.293-.093-.155 0-.248.093-.248.247 0 .396.466.135.785.532.238.284.246.67.246 1.272v4.84c0 .571-.118.947-.393 1.162-.247.192-.455.201-.455.482 0 .139.078.222.235.222.22 0 .69-.107 1.36-.107.602 0 1.002.107 1.186.107zm-.71-7.272c0-.68.085-.99.61-.99 1.002 0 1.61.804 1.61 2.107 0 1.117-.475 1.465-1.46 1.465-.708 0-.76-.1-.76-.595v-1.987zM8.146 143.775c-.243.191-.45.2-.45.481 0 .138.074.224.238.224.19 0 .721-.108 1.568-.108.754 0 1.372.108 1.853.108.614 0 1.03-.208 1.31-.705.246-.442.388-1.083.388-1.342 0-.15-.067-.248-.142-.248-.197 0-.197.43-.627.875-.402.435-1.095.715-1.762.715-.741 0-.79-.256-.79-1.133v-1.925c0-.51.049-.697.407-.697h.391c.577 0 .848.123 1 .641.118.412.024.71.269.71.108 0 .17-.078.17-.238 0-.15-.083-.679-.083-1.606 0-.564.046-.864.046-.935 0-.178-.046-.26-.162-.26-.24 0-.24.381-.42.702-.203.32-.456.42-.883.42h-.314c-.304 0-.42-.148-.42-.516v-1.933c0-.538.208-.71.797-.71.985 0 1.443.172 1.661.704.132.368-.014.714.256.714.143 0 .16-.06.16-.247 0-.086-.014-.445-.014-1.052v-.257c0-.41-.06-.446-.397-.446-.439 0-1.372.103-2.803.103-1.066 0-1.634-.103-1.721-.103-.161 0-.257.103-.257.258 0 .405.504.127.862.533.258.298.268.67.268 1.271v4.842c0 .568-.115.945-.4 1.16M16.316 144.026c-.63 0-1.264-.545-1.682-1.462-.339-.776-.287-1.145-.496-1.145-.161 0-.196.098-.196.286 0 .012.012.083.036.223l.329 1.777c.078.429.055.384.419.454.398.075.869.437 1.53.437 1.255 0 2.172-1.09 2.172-2.797 0-.79-.214-1.44-.595-1.913-.36-.43-.895-.64-1.556-.961-.937-.446-1.395-.828-1.395-1.596 0-.663.448-1.209 1.104-1.209.627 0 1.253.433 1.594 1.133.388.804.22 1.162.504 1.162.124 0 .155-.071.155-.255 0-.436-.14-1.025-.14-1.593 0-.163.016-.299.016-.435 0-.186-.034-.271-.175-.271-.096 0-.179.16-.417.16-.351 0-.725-.416-1.483-.416-1.192 0-1.96 1.11-1.96 2.356 0 1.601.758 2 1.967 2.642 1.057.572 1.623.83 1.623 1.792 0 1.012-.598 1.631-1.354 1.631M23.735 143.817c-.41-.225-.541-.597-.541-1.238v-5.523c0-.575.12-.588.754-.588h.084c.792 0 1.148.085 1.352.562.176.436.082.696.35.696.138 0 .138-.036.138-.273v-.108l-.07-1.263c-.026-.346-.102-.371-.381-.371-.317 0-.888.078-1.741.078h-2.355c-.818 0-1.372-.078-1.637-.078-.254 0-.271.114-.289.506-.06.976-.17 1.533-.17 1.64 0 .188.048.275.16.275.3 0 .2-.358.447-1.025.209-.58.662-.653 1.48-.653.584 0 .652.047.652.567v5.592c0 .634-.164 1.03-.543 1.23-.308.155-.585.095-.585.393 0 .148.098.255.277.255.317 0 .87-.119 1.602-.119.681 0 1.155.108 1.406.108.161 0 .253-.084.253-.26 0-.34-.357-.245-.643-.403M29.757 144.22c0 .152.066.259.159.259.097 0 .515-.118 1.262-.118.662 0 1.136.108 1.4.108.131 0 .173-.027.173-.234 0-.26-.1-.237-.369-.343-.305-.14-.455-.387-.59-.793l-2.531-7.364c-.044-.13-.118-.22-.196-.22-.095 0-.12.063-.153.168l-2.498 7.009c-.204.556-.355.927-.62 1.15-.195.156-.409.134-.409.393 0 .16.076.244.214.244.12 0 .383-.107.871-.107.635 0 1.063.118 1.267.118.154 0 .233-.08.233-.255 0-.197-.16-.222-.402-.281-.45-.111-.68-.335-.68-.706 0-.125.034-.258.081-.42l.27-.942c.16-.531.322-.531.775-.531h1.391c.403 0 .523.028.692.53l.276.83c.062.2.098.398.098.547 0 .736-.714.616-.714.958m-.438-3.483h-1.14c-.32 0-.446-.02-.446-.186 0-.046.018-.157.067-.307l.75-2.172c.039-.125.096-.185.146-.185.039 0 .092.074.148.234l.702 2.085c.079.211.09.345.09.373 0 .096-.098.158-.317.158M31.7 135.946c0 .305.233.199.595.368.335.155.438.351.438 1.102v3.017c0 2.777.673 4.149 2.678 4.149 2.011 0 3.013-1.483 3.013-4.448v-1.576c0-1.34 0-2.031.22-2.23.237-.208.494-.136.494-.42 0-.145-.069-.198-.212-.198-.161 0-.469.105-.935.105-.472 0-.824-.092-1.03-.092-.158 0-.246.053-.246.209 0 .336.354.222.76.42.38.2.441.704.441 1.58v2.141c0 1.322-.074 2.248-.526 2.917a1.876 1.876 0 0 1-1.59.84c-.715 0-1.281-.421-1.61-1.138-.262-.595-.273-1.322-.273-2.21v-2.15c0-1.226.01-1.805.317-2.026.234-.175.491-.123.491-.385 0-.158-.09-.222-.268-.222-.204 0-.646.127-1.369.127-.537 0-.936-.091-1.143-.091-.177 0-.245.054-.245.21M43.351 144.208c0-.316-.303-.242-.538-.393-.311-.197-.443-.595-.443-1.236v-1.817c0-.344.109-.428.42-.428.323 0 .538 0 .726.206.173.187.389.766.751 1.695.589 1.517 1.036 2.207 1.683 2.207.526 0 1.053-.343 1.053-.641 0-.124-.044-.173-.14-.173-.063 0-.157.027-.261.027-.309 0-.468-.261-.71-.814l-1.008-2.31c-.093-.23-.186-.422-.344-.523.872-.356 1.287-.998 1.287-1.987 0-1.469-.81-2.322-2.315-2.322-.668 0-1.287.116-1.825.116-.728 0-1.166-.093-1.297-.093-.156 0-.243.093-.243.247 0 .396.462.136.783.532.235.284.251.671.251 1.272v4.84c0 .571-.128.947-.402 1.162-.255.191-.452.202-.452.483 0 .138.075.221.238.221.214 0 .688-.107 1.357-.107.602 0 1.002.107 1.19.107.168 0 .239-.057.239-.272zm-.958-7.002c0-.68.086-.99.61-.99 1.004 0 1.613.805 1.613 2.107 0 1.118-.476 1.466-1.46 1.466-.715 0-.763-.1-.763-.595v-1.988zM54.835 143.892c-.311-.14-.458-.386-.594-.793l-2.519-7.364c-.058-.13-.14-.22-.2-.22-.1 0-.117.063-.158.169l-2.497 7.008c-.203.555-.346.926-.622 1.15-.188.156-.404.133-.404.393 0 .161.075.243.216.243.1 0 .376-.106.861-.106.632 0 1.07.118 1.283.118.149 0 .223-.08.223-.255 0-.197-.162-.221-.401-.281-.453-.112-.68-.336-.68-.707 0-.124.029-.257.074-.42l.273-.942c.156-.53.322-.53.773-.53h1.404c.389 0 .5.028.676.53l.281.83c.067.201.104.398.104.547 0 .736-.72.616-.72.958 0 .152.074.258.154.258.107 0 .523-.118 1.264-.118.667 0 1.142.109 1.403.109.135 0 .17-.027.17-.234 0-.26-.093-.237-.364-.343m-3.059-3.155h-1.144c-.313 0-.448-.02-.448-.186 0-.047.02-.157.074-.306l.742-2.173c.039-.125.096-.185.149-.185.042 0 .1.074.147.234l.705 2.085c.065.21.084.345.084.373 0 .097-.094.158-.309.158M56.853 136.527c.214.274.295.768.295 1.518v3.103c0 1.394-.123 2.236-.295 2.507-.23.358-.645.247-.645.534 0 .183.055.291.185.291.169 0 .55-.108 1.118-.108.542 0 .886.118 1.044.118.186 0 .262-.021.262-.255 0-.406-.587-.174-.88-.544-.323-.405-.334-1.222-.334-2.516v-2.881c0-.347.04-.522.117-.522.023 0 .141.085.241.236l4.074 6.005c.244.349.375.583.558.583.086 0 .126-.175.126-.523l.065-6.262c.012-.714.034-1.123.333-1.421.248-.245.513-.158.513-.458 0-.169-.063-.221-.214-.221-.26 0-.686.102-1.219.102-.397 0-.724-.09-.962-.09-.149 0-.225.076-.225.222 0 .35.402.138.88.524.334.267.389.784.389 1.539v3.154c0 .394-.04.585-.14.585-.074 0-.214-.121-.396-.405l-3.412-5.098c-.269-.395-.34-.52-.624-.52-.263 0-.552.065-.841.065-.223 0-.42-.066-.603-.066-.131 0-.192.054-.192.259 0 .424.398.05.782.545M66.553 135.79c-.822 0-1.371-.08-1.639-.08-.248 0-.264.116-.287.505-.06.978-.17 1.535-.17 1.643 0 .19.049.273.153.273.304 0 .205-.358.454-1.025.21-.58.667-.654 1.474-.654.596 0 .66.05.66.569v5.594c0 .632-.16 1.026-.553 1.227-.299.156-.574.096-.574.393 0 .15.092.255.275.255.314 0 .868-.118 1.595-.118.685 0 1.16.108 1.405.108.174 0 .265-.084.265-.26 0-.342-.361-.243-.65-.404-.404-.225-.534-.596-.534-1.238v-5.521c0-.576.117-.589.749-.589h.081c.802 0 1.155.085 1.35.564.174.434.091.692.356.692.145 0 .145-.034.145-.27v-.11l-.082-1.261c-.02-.346-.092-.373-.375-.373-.322 0-.893.08-1.75.08h-2.348z"/>
    </g>
</svg>
